<?xml version="1.0" encoding="UTF-8" standalone="no" ?>
<!DOCTYPE svg PUBLIC "-//W3C//DTD SVG 1.1//EN" "http://www.w3.org/Graphics/SVG/1.1/DTD/svg11.dtd">
<svg xmlns="http://www.w3.org/2000/svg" xmlns:xlink="http://www.w3.org/1999/xlink" version="1.1" width="100" height="100" viewBox="0 0 100 100" xml:space="preserve">
<desc>Created with Fabric.js 5.3.0</desc>
<defs>
</defs>
<g transform="matrix(1.0243906701 0 0 1.0243906701 29.9637205028 83.4901197029)" id="9HK7aNmkp4-0L4AQ6pBDc"  >
<path style="stroke: rgb(230,107,23); stroke-width: 0; stroke-dasharray: none; stroke-linecap: butt; stroke-dashoffset: 0; stroke-linejoin: miter; stroke-miterlimit: 4; fill: rgb(0,0,0); fill-rule: nonzero; opacity: 1;" vector-effect="non-scaling-stroke"  transform=" translate(0, 0)" d="M 0 -7.56457 C 4.17564 -7.56457 7.56457 -4.17564 7.56457 0 C 7.56457 4.17564 4.17564 7.56457 0 7.56457 C -4.17564 7.56457 -7.56457 4.17564 -7.56457 0 C -7.56457 -4.17564 -4.17564 -7.56457 0 -7.56457 z" stroke-linecap="round" />
</g>
<g transform="matrix(1.0243906701 0 0 1.0243906701 69.8530193958 83.490119035)" id="fugojnlsdwUjzsFQKDX91"  >
<path style="stroke: rgb(230,107,23); stroke-width: 0; stroke-dasharray: none; stroke-linecap: butt; stroke-dashoffset: 0; stroke-linejoin: miter; stroke-miterlimit: 4; fill: rgb(0,0,0); fill-rule: nonzero; opacity: 1;" vector-effect="non-scaling-stroke"  transform=" translate(0, 0)" d="M 0 -7.56457 C 4.17564 -7.56457 7.56457 -4.17564 7.56457 0 C 7.56457 4.17564 4.17564 7.56457 0 7.56457 C -4.17564 7.56457 -7.56457 4.17564 -7.56457 0 C -7.56457 -4.17564 -4.17564 -7.56457 0 -7.56457 z" stroke-linecap="round" />
</g>
<g transform="matrix(1 0 0 1 45.793635783 41.524441913)" id="ph_PdkOlhNBicAq7CtRS7"  >
<path style="stroke: rgb(108,59,244); stroke-width: 0; stroke-dasharray: none; stroke-linecap: butt; stroke-dashoffset: 0; stroke-linejoin: miter; stroke-miterlimit: 4; fill: rgb(0,0,0); fill-rule: nonzero; opacity: 1;" vector-effect="non-scaling-stroke"  transform=" translate(5.556e-7, 0.0000087173)" d="M -39.88209 -29.74176 L -39.88209 -21.922829999999998 L -31.65164 -21.922829999999998 L -17.865630000000003 9.14713 L -23.21542 17.669710000000002 C -23.21542 17.669710000000002 -24.18314 19.92095 -24.220000000000002 22.29332 C -24.24667 24.00974 -23.688010000000002 25.78957 -22.392380000000003 26.82609 C -21.414450000000002 27.608430000000002 -20.712960000000002 28.35939 -19.367520000000003 28.879730000000002 C -16.46664 30.001640000000002 -12.927360000000004 29.706740000000003 -12.927360000000004 29.706740000000003 L 31.705579999999994 29.706740000000003 L 31.705579999999994 22.29332 L -17.36528000000001 22.29332 L -12.32413000000001 13.966000000000001 L 18.540069999999993 13.966000000000001 C 18.540069999999993 13.966000000000001 21.009209999999992 13.65736 22.346649999999993 12.217030000000001 C 23.684099999999994 10.776700000000002 23.956499999999995 10.046870000000002 23.956499999999995 10.046870000000002 L 39.424839999999996 -16.833419999999997 C 39.424839999999996 -16.833419999999997 40.453649999999996 -18.788149999999998 39.424839999999996 -20.022719999999996 C 38.6819 -20.914249999999996 38.215889999999995 -21.147039999999997 37.49697 -21.502549999999996 L 37.49697 -21.502549999999996 C 36.9379 -21.779009999999996 36.32261 -21.922839999999997 35.69891 -21.922839999999997 L -23.21544 -21.922839999999997 L -26.21303 -29.741769999999995 z" stroke-linecap="round" />
</g>
<g transform="matrix(1 0 0 1 50.5476997786 37.3821842532)" id="hEvYVeCVgjmto-xIURMl7"  >
<path style="stroke: rgb(108,59,244); stroke-width: 0; stroke-dasharray: none; stroke-linecap: butt; stroke-dashoffset: 0; stroke-linejoin: miter; stroke-miterlimit: 4; fill: rgb(255,255,255); fill-rule: nonzero; opacity: 1;" vector-effect="non-scaling-stroke"  transform=" translate(0.000005, -0.000005)" d="M -24.58848 -9.97942 L 24.588469999999997 -9.97942 L 13.888879999999997 9.979430000000002 L -16.049390000000002 9.979430000000002 z" stroke-linecap="round" />
</g>
</svg>